<svg viewBox="325.5377 155.293 19.9983 19.9974" width="19.998" height="19.997" xmlns="http://www.w3.org/2000/svg">
  <path d="M 338.725 164.956 L 329.594 174.009 C 327.254 175.326 325.178 172.722 326.96 170.926 L 335.843 162.09 L 335.622 161.318 L 326.496 170.353 C 324.866 171.787 325.4 174.448 327.457 175.142 C 328.534 175.506 329.725 175.187 330.476 174.333 L 339.637 165.222 M 345.536 160.293 C 345.536 163.054 343.297 165.293 340.536 165.293 C 337.775 165.293 335.536 163.054 335.536 160.293 C 335.536 157.532 337.775 155.293 340.536 155.293 C 343.297 155.293 345.536 157.532 345.536 160.293 Z" transform="matrix(0.9999999999999999, 0, 0, 0.9999999999999999, 5.684341886080802e-14, 0)"/>
</svg>