<svg viewBox="307.4035 95.0735 15.0014 13.7925" xmlns="http://www.w3.org/2000/svg">
  <path d="M 317.904 97.659 L 317.904 96.366 C 317.904 96.09 318.128 95.866 318.404 95.866 L 319.404 95.866 C 319.681 95.866 319.904 96.09 319.904 96.366 L 319.904 99.659 L 322.258 102.012 C 322.385 102.139 322.434 102.323 322.388 102.496 C 322.288 102.868 321.823 102.993 321.55 102.72 L 314.904 96.073 L 308.258 102.72 C 308.132 102.847 307.948 102.896 307.775 102.85 C 307.403 102.75 307.278 102.285 307.55 102.012 L 314.197 95.366 C 314.588 94.976 315.221 94.976 315.611 95.366 Z M 314.904 97.159 L 320.904 103.159 L 320.904 107.366 C 320.904 108.195 320.233 108.866 319.404 108.866 L 310.404 108.866 C 309.576 108.866 308.904 108.195 308.904 107.366 L 308.904 103.159 Z"/>
</svg>