<?xml version="1.0" encoding="utf-8"?>
<svg viewBox="45.904 289.232 107.4999 98.407" width="107.5" height="98.407" xmlns="http://www.w3.org/2000/svg">
  <path d="M 80.577 292.232 L 91.233 292.232 C 92.591 292.232 93.692 293.819 93.692 295.777 L 93.692 380.861 C 93.692 382.819 92.591 384.406 91.233 384.406 L 80.577 384.406 C 79.219 384.406 78.118 382.819 78.118 380.861 L 78.118 295.777 C 78.118 293.819 79.219 292.232 80.577 292.232 Z M 51.644 292.319 L 63.521 292.319 C 65.034 292.319 66.261 293.906 66.261 295.864 L 66.261 380.948 C 66.261 382.906 65.034 384.493 63.521 384.493 L 51.644 384.493 C 50.131 384.493 48.904 382.906 48.904 380.948 L 48.904 295.864 C 48.904 293.906 50.131 292.319 51.644 292.319 Z M 79.625 289.232 L 94.988 289.232 C 96.58 289.363 98.596 290.129 99.616 291.149 C 100.636 292.169 101.402 294.185 101.533 295.777 L 101.533 380.861 C 101.402 382.453 100.636 384.469 99.616 385.489 C 98.596 386.509 96.58 387.275 94.988 387.406 L 79.625 387.406 C 78.033 387.275 76.017 386.509 74.997 385.489 C 73.977 384.469 73.211 382.453 73.08 380.861 L 73.08 295.777 C 73.211 294.185 73.977 292.169 74.997 291.149 C 76.017 290.129 78.033 289.363 79.625 289.232 Z M 79.24 295.392 C 78.976 295.655 78.949 295.411 79.08 295.777 L 79.08 380.861 C 78.949 381.227 78.976 380.983 79.24 381.246 C 79.503 381.51 79.259 381.537 79.625 381.406 L 94.988 381.406 C 95.354 381.537 95.11 381.51 95.373 381.246 C 95.637 380.983 95.664 381.227 95.533 380.861 L 95.533 295.777 C 95.664 295.411 95.637 295.655 95.373 295.392 C 95.11 295.128 95.354 295.101 94.988 295.232 L 79.625 295.232 C 79.259 295.101 79.503 295.128 79.24 295.392 Z M 52.449 289.319 L 67.812 289.319 C 69.404 289.45 71.42 290.216 72.44 291.236 C 73.46 292.256 74.226 294.272 74.357 295.864 L 74.357 380.948 C 74.226 382.54 73.46 384.556 72.44 385.576 C 71.42 386.596 69.404 387.362 67.812 387.493 L 52.449 387.493 C 50.857 387.362 48.841 386.596 47.821 385.576 C 46.801 384.556 46.035 382.54 45.904 380.948 L 45.904 295.864 C 46.035 294.272 46.801 292.256 47.821 291.236 C 48.841 290.216 50.857 289.45 52.449 289.319 Z M 52.064 295.479 C 51.8 295.742 51.773 295.498 51.904 295.864 L 51.904 380.948 C 51.773 381.314 51.8 381.07 52.064 381.333 C 52.327 381.597 52.083 381.624 52.449 381.493 L 67.812 381.493 C 68.178 381.624 67.934 381.597 68.197 381.333 C 68.461 381.07 68.488 381.314 68.357 380.948 L 68.357 295.864 C 68.488 295.498 68.461 295.742 68.197 295.479 C 67.934 295.215 68.178 295.188 67.812 295.319 L 52.449 295.319 C 52.083 295.188 52.327 295.215 52.064 295.479 Z M 101.14 295.124 L 115.573 289.86 C 117.113 289.437 119.27 289.466 120.578 290.075 C 121.885 290.683 123.296 292.315 123.964 293.766 L 153.119 373.699 C 153.542 375.239 153.513 377.396 152.904 378.703 C 152.295 380.011 150.664 381.422 149.213 382.09 L 134.78 387.354 C 133.24 387.777 131.083 387.748 129.775 387.139 C 128.468 386.531 127.057 384.899 126.389 383.448 L 97.234 303.515 C 96.811 301.975 96.84 299.818 97.449 298.511 C 98.058 297.203 99.689 295.792 101.14 295.124 Z M 102.889 301.043 C 102.731 301.38 102.622 301.16 102.871 301.459 L 132.025 381.392 C 132.028 381.781 131.97 381.543 132.308 381.699 C 132.645 381.857 132.425 381.966 132.724 381.718 L 147.157 376.453 C 147.546 376.451 147.307 376.509 147.464 376.171 C 147.622 375.834 147.731 376.054 147.482 375.755 L 118.328 295.822 C 118.325 295.433 118.384 295.671 118.045 295.515 C 117.708 295.357 117.928 295.248 117.629 295.496 L 103.196 300.761 C 102.807 300.763 103.046 300.705 102.889 301.043 Z" style="stroke-width: 6px;" transform="matrix(1, 0, 0, 1, 2.842170943040401e-14, 0)"/>
</svg>