<?xml version="1.0" encoding="utf-8"?>
<svg viewBox="304.151 233.382 14.6483 14.501" width="14.648" height="14.501" xmlns="http://www.w3.org/2000/svg">
  <path d="M 318.653 234.823 C 318.848 235.018 318.848 235.333 318.653 235.529 L 317.61 236.573 L 315.61 234.573 L 316.653 233.529 C 316.849 233.333 317.165 233.333 317.36 233.529 L 318.653 234.822 L 318.653 234.823 Z M 316.903 237.279 L 314.903 235.279 L 308.09 242.093 C 308.035 242.148 307.994 242.215 307.969 242.289 L 307.164 244.703 C 307.104 244.885 307.264 245.065 307.452 245.026 C 307.462 245.024 307.471 245.022 307.48 245.019 L 309.894 244.214 C 309.968 244.189 310.035 244.148 310.09 244.094 L 316.903 237.28 L 316.903 237.279 Z M 304.151 246.383 C 304.151 247.211 304.823 247.883 305.651 247.883 L 316.651 247.883 C 317.48 247.883 318.151 247.211 318.151 246.383 L 318.151 240.383 C 318.151 239.998 317.735 239.757 317.401 239.95 C 317.247 240.039 317.151 240.204 317.151 240.383 L 317.151 246.383 C 317.151 246.659 316.928 246.883 316.651 246.883 L 305.651 246.883 C 305.375 246.883 305.151 246.659 305.151 246.383 L 305.151 235.383 C 305.151 235.106 305.375 234.883 305.651 234.883 L 312.151 234.883 C 312.536 234.883 312.777 234.466 312.585 234.133 C 312.495 233.978 312.33 233.883 312.151 233.883 L 305.651 233.883 C 304.823 233.883 304.151 234.554 304.151 235.383 L 304.151 246.383 Z"/>
</svg>