<svg viewBox="271.4124 71.219 16.0242 16" xmlns="http://www.w3.org/2000/svg">
  <path d="M 285.487 82.719 C 288.181 78.053 284.813 72.219 279.425 72.219 C 276.924 72.219 274.613 73.554 273.362 75.719 C 270.668 80.386 274.036 86.219 279.425 86.219 C 281.925 86.219 284.236 84.885 285.487 82.719 Z M 272.496 83.219 C 269.417 77.886 273.266 71.219 279.425 71.219 C 282.283 71.219 284.924 72.744 286.353 75.219 C 289.432 80.553 285.583 87.219 279.425 87.219 C 276.566 87.219 273.925 85.695 272.496 83.219 Z M 277.696 76.274 C 277.862 76.189 278.063 76.203 278.216 76.312 L 281.716 78.812 C 281.995 79.012 281.995 79.427 281.716 79.626 L 278.216 82.126 C 277.903 82.35 277.464 82.152 277.427 81.769 C 277.425 81.752 277.425 81.736 277.425 81.719 L 277.425 76.719 C 277.424 76.532 277.529 76.36 277.696 76.274 Z"/>
</svg>