<?xml version="1.0" encoding="utf-8"?>
<svg viewBox="208.599 369.706 16 16" width="16" height="16" xmlns="http://www.w3.org/2000/svg">
  <path d="M 208.599 371.206 C 208.599 370.378 209.27 369.706 210.099 369.706 L 211.599 369.706 L 211.599 375.206 C 211.599 376.035 212.27 376.706 213.099 376.706 L 220.099 376.706 C 220.927 376.706 221.599 376.035 221.599 375.206 L 221.599 369.706 L 221.685 369.706 C 222.082 369.707 222.463 369.865 222.745 370.146 L 224.16 371.56 C 224.441 371.842 224.598 372.223 224.599 372.62 L 224.599 384.206 C 224.599 385.035 223.927 385.706 223.099 385.706 L 222.599 385.706 L 222.599 380.206 C 222.599 379.378 221.927 378.706 221.099 378.706 L 212.099 378.706 C 211.27 378.706 210.599 379.378 210.599 380.206 L 210.599 385.706 L 210.099 385.706 C 209.27 385.706 208.599 385.035 208.599 384.206 L 208.599 371.206 Z M 211.599 385.706 L 221.599 385.706 L 221.599 380.206 C 221.599 379.93 221.375 379.706 221.099 379.706 L 212.099 379.706 C 211.822 379.706 211.599 379.93 211.599 380.206 L 211.599 385.706 Z M 220.599 369.706 L 212.599 369.706 L 212.599 375.206 C 212.599 375.483 212.822 375.706 213.099 375.706 L 220.099 375.706 C 220.375 375.706 220.599 375.483 220.599 375.206 L 220.599 369.706 Z M 217.599 370.706 L 219.599 370.706 L 219.599 374.706 L 217.599 374.706 L 217.599 370.706 Z" transform="matrix(1, 0, 0, 1, 2.842170943040401e-14, -2.842170943040401e-14)"/>
</svg>