<svg viewBox="265.378 113.8335 16 13.7795" xmlns="http://www.w3.org/2000/svg">
  <path d="M 274.878 127.613 C 273.498 127.613 272.378 126.718 272.378 125.613 C 272.378 124.508 273.498 123.613 274.878 123.613 C 275.441 123.613 275.96 123.762 276.378 124.013 L 276.378 115.433 C 276.378 114.957 276.714 114.547 277.182 114.453 L 280.182 113.853 C 280.8 113.73 281.377 114.203 281.378 114.833 L 281.378 116.613 L 277.378 117.413 L 277.378 125.613 C 277.378 126.718 276.258 127.613 274.878 127.613 Z M 265.378 124.113 C 265.378 123.837 265.602 123.613 265.878 123.613 L 269.378 123.613 C 269.763 123.613 270.003 124.03 269.811 124.363 C 269.721 124.518 269.556 124.613 269.378 124.613 L 265.878 124.613 C 265.602 124.613 265.378 124.389 265.378 124.113 Z M 265.378 120.113 C 265.378 119.837 265.602 119.613 265.878 119.613 L 273.378 119.613 C 273.763 119.613 274.003 120.03 273.811 120.363 C 273.721 120.518 273.556 120.613 273.378 120.613 L 265.878 120.613 C 265.602 120.613 265.378 120.389 265.378 120.113 Z M 265.378 116.113 C 265.378 115.837 265.602 115.613 265.878 115.613 L 273.378 115.613 C 273.763 115.613 274.003 116.03 273.811 116.363 C 273.721 116.518 273.556 116.613 273.378 116.613 L 265.878 116.613 C 265.602 116.613 265.378 116.389 265.378 116.113 Z"/>
</svg>